/* XPM */
static char * mcm_icon_xpm[] = {
"32 32 349 2",
"  	c None",
". 	c #1D9662",
"+ 	c #219864",
"@ 	c #32A071",
"# 	c #36A274",
"$ 	c #2E9E6E",
"% 	c #1F9763",
"& 	c #66B894",
"* 	c #67B995",
"= 	c #78C0A2",
"- 	c #85C6AB",
"; 	c #81C5A8",
"> 	c #6EBC9A",
", 	c #69B997",
"' 	c #72BE9D",
") 	c #85C6AA",
"! 	c #82C5A9",
"~ 	c #72BD9D",
"{ 	c #65B894",
"] 	c #57B18A",
"^ 	c #62B692",
"/ 	c #9CD1BA",
"( 	c #51AE86",
"_ 	c #0E8F58",
": 	c #00864A",
"< 	c #008649",
"[ 	c #00884D",
"} 	c #18945E",
"| 	c #38A375",
"1 	c #A6D5C1",
"2 	c #2A9C6A",
"3 	c #00874C",
"4 	c #9FD2BD",
"5 	c #80C4A7",
"6 	c #058B52",
"7 	c #00894E",
"8 	c #14925C",
"9 	c #B8DECE",
"0 	c #6FBC9B",
"a 	c #309F6F",
"b 	c #ADD9C6",
"c 	c #40A67A",
"d 	c #008143",
"e 	c #00884C",
"f 	c #00874B",
"g 	c #83C5A9",
"h 	c #91CBB2",
"i 	c #1E9763",
"j 	c #008749",
"k 	c #26A06C",
"l 	c #56B98F",
"m 	c #63B994",
"n 	c #62B491",
"o 	c #62BB95",
"p 	c #4AB386",
"q 	c #12965D",
"r 	c #008547",
"s 	c #4EAD84",
"t 	c #8BC9AF",
"u 	c #008549",
"v 	c #008447",
"w 	c #3AA879",
"x 	c #96BEAD",
"y 	c #5A6962",
"z 	c #1B2220",
"A 	c #0B0F0D",
"B 	c #0D100F",
"C 	c #0C100E",
"D 	c #2A342F",
"E 	c #758780",
"F 	c #8ECAB0",
"G 	c #14955D",
"H 	c #008548",
"I 	c #4BAC82",
"J 	c #A4D5C1",
"K 	c #088D54",
"L 	c #88C0A8",
"M 	c #6A6768",
"N 	c #100E0F",
"O 	c #646464",
"P 	c #9F9F9F",
"Q 	c #9B9B9B",
"R 	c #999999",
"S 	c #9C9C9C",
"T 	c #969696",
"U 	c #3E3D3E",
"V 	c #151314",
"W 	c #8E9390",
"X 	c #5DB28E",
"Y 	c #01894F",
"Z 	c #008345",
"` 	c #7AC2A2",
" .	c #6EBC9B",
"..	c #229A67",
"+.	c #7F9E91",
"@.	c #1C191A",
"#.	c #515051",
"$.	c #747474",
"%.	c #252525",
"&.	c #000000",
"*.	c #484848",
"=.	c #757575",
"-.	c #3A3939",
";.	c #3F3E3F",
">.	c #6DAC91",
",.	c #048B51",
"'.	c #95CEB5",
").	c #34A172",
"!.	c #809F92",
"~.	c #050405",
"{.	c #878787",
"].	c #383838",
"^.	c #1B1B1B",
"/.	c #050505",
"(.	c #0E0E0E",
"_.	c #5A5A5A",
":.	c #575656",
"<.	c #2C2B2C",
"[.	c #82BFA5",
"}.	c #008344",
"|.	c #3FA679",
"1.	c #68B996",
"2.	c #87BFA7",
"3.	c #141213",
"4.	c #414141",
"5.	c #DADADA",
"6.	c #F5F5F5",
"7.	c #E3E3E3",
"8.	c #393939",
"9.	c #F7F7F7",
"0.	c #F9F9F9",
"a.	c #B0B0B0",
"b.	c #030303",
"c.	c #666666",
"d.	c #1C1C1C",
"e.	c #454646",
"f.	c #61BC94",
"g.	c #0E8F57",
"h.	c #AFABAD",
"i.	c #424242",
"j.	c #888888",
"k.	c #E1E1E1",
"l.	c #FEFEFE",
"m.	c #F8F8F8",
"n.	c #FAFAFA",
"o.	c #D4D4D4",
"p.	c #7B7B7B",
"q.	c #FCFCFC",
"r.	c #FFFFFF",
"s.	c #A5A5A5",
"t.	c #262626",
"u.	c #535353",
"v.	c #B4C4BD",
"w.	c #17955F",
"x.	c #2B9D6C",
"y.	c #3BA778",
"z.	c #6C7873",
"A.	c #505050",
"B.	c #353535",
"C.	c #818181",
"D.	c #272727",
"E.	c #2F2E2E",
"F.	c #709988",
"G.	c #12935B",
"H.	c #3BA477",
"I.	c #6CBB99",
"J.	c #038C51",
"K.	c #669D85",
"L.	c #131112",
"M.	c #282828",
"N.	c #404040",
"O.	c #7D7D7D",
"P.	c #D2D2D2",
"Q.	c #FDFDFD",
"R.	c #D6D6D6",
"S.	c #525252",
"T.	c #040404",
"U.	c #514D4E",
"V.	c #2D976A",
"W.	c #038A50",
"X.	c #A6D6C1",
"Y.	c #13945C",
"Z.	c #597E6E",
"`.	c #090808",
" +	c #7E7E7E",
".+	c #AEAEAE",
"++	c #060606",
"@+	c #C2C2C2",
"#+	c #FBFBFB",
"$+	c #F4F4F4",
"%+	c #4B4B4B",
"&+	c #4D4D4D",
"*+	c #020202",
"=+	c #322C2F",
"-+	c #479A76",
";+	c #008243",
">+	c #BADECE",
",+	c #0D9159",
"'+	c #5D8775",
")+	c #0B090A",
"!+	c #161616",
"~+	c #0C0C0C",
"{+	c #AAAAAA",
"]+	c #151515",
"^+	c #BFBFBF",
"/+	c #2D2D2D",
"(+	c #454545",
"_+	c #3C3538",
":+	c #3E9871",
"<+	c #008244",
"[+	c #B4DCCB",
"}+	c #70B598",
"|+	c #202120",
"1+	c #212121",
"2+	c #626262",
"3+	c #343434",
"4+	c #EDEDED",
"5+	c #BDBDBD",
"6+	c #E8E8E8",
"7+	c #C1C1C1",
"8+	c #F6F6F6",
"9+	c #CFCFCF",
"0+	c #2E2E2E",
"a+	c #656565",
"b+	c #626A66",
"c+	c #299B6A",
"d+	c #AFDAC7",
"e+	c #00874A",
"f+	c #5DB68F",
"g+	c #B1B5B4",
"h+	c #787878",
"i+	c #434343",
"j+	c #EBEBEB",
"k+	c #A8A8A8",
"l+	c #6E6E6E",
"m+	c #5E5E5E",
"n+	c #7A7A7A",
"o+	c #AEC5BC",
"p+	c #B7DECD",
"q+	c #28312E",
"r+	c #777777",
"s+	c #DBDBDB",
"t+	c #515151",
"u+	c #8B8B8B",
"v+	c #222222",
"w+	c #4F7465",
"x+	c #15955E",
"y+	c #B8DECD",
"z+	c #798B84",
"A+	c #7F7F7F",
"B+	c #B4B4B4",
"C+	c #F0F0F0",
"D+	c #C0C0C0",
"E+	c #C5C5C5",
"F+	c #E7E7E7",
"G+	c #67A489",
"H+	c #018B4F",
"I+	c #13915B",
"J+	c #97CFB6",
"K+	c #8FCAB0",
"L+	c #110F10",
"M+	c #5D5D5D",
"N+	c #616161",
"O+	c #D9D9D9",
"P+	c #ADADAD",
"Q+	c #838383",
"R+	c #7C7C7C",
"S+	c #8E8E8E",
"T+	c #BEBEBE",
"U+	c #E5E5E5",
"V+	c #D1D1D1",
"W+	c #565656",
"X+	c #4F4F4F",
"Y+	c #313835",
"Z+	c #51B389",
"`+	c #50AE86",
" @	c #56B18A",
".@	c #8F9391",
"+@	c #424141",
"@@	c #303030",
"#@	c #CECECE",
"$@	c #0A0909",
"%@	c #9CBCAE",
"&@	c #008A4D",
"*@	c #8BC9AE",
"=@	c #1E9764",
"-@	c #5DB28D",
";@	c #5B5A5A",
">@	c #6D6D6D",
",@	c #E6E6E6",
"'@	c #8A8A8A",
")@	c #515050",
"!@	c #79827E",
"~@	c #32A674",
"{@	c #1B9561",
"]@	c #78C0A1",
"^@	c #69A78D",
"/@	c #525152",
"(@	c #696969",
"_@	c #464646",
":@	c #DDDDDD",
"<@	c #E4E4E4",
"[@	c #D7D7D7",
"}@	c #B1B1B1",
"|@	c #737373",
"1@	c #565455",
"2@	c #707573",
"3@	c #47A97F",
"4@	c #52AF87",
"5@	c #048C51",
"6@	c #81BEA4",
"7@	c #4E4F4F",
"8@	c #9E9E9E",
"9@	c #0B0B0B",
"0@	c #131313",
"a@	c #8C8C8C",
"b@	c #161515",
"c@	c #78827E",
"d@	c #ABD8C5",
"e@	c #62BC95",
"f@	c #85968F",
"g@	c #171B19",
"h@	c #363535",
"i@	c #6F6E6E",
"j@	c #8D8D8D",
"k@	c #929292",
"l@	c #888787",
"m@	c #5F5F5F",
"n@	c #1F1E1E",
"o@	c #2C3431",
"p@	c #9BBBAE",
"q@	c #A8D7C2",
"r@	c #41A67B",
"s@	c #13955D",
"t@	c #60B591",
"u@	c #5E927B",
"v@	c #4D6D60",
"w@	c #455A51",
"x@	c #43554D",
"y@	c #465E54",
"z@	c #527767",
"A@	c #65A288",
"B@	c #86C6AB",
"C@	c #60B691",
"D@	c #078E54",
"E@	c #1A9761",
"F@	c #249D69",
"G@	c #269E6A",
"H@	c #219C67",
"                          . + @ # $ . %                         ",
"                    & * = - ; > , ' ) ! ~ { ]                   ",
"                ^ / ( $ _ : < : : : < [ } | , 1 2               ",
"            3 4 5 6 7 [ [ [ 7 7 7 7 7 [ [ [ [ 8 9 0             ",
"          a b c d [ 7 7 [ e f f f f f [ [ 7 7 e d ' g           ",
"        a h i < 7 7 7 : j k l m n o p q r e 7 7 7 : s t u       ",
"      3 b i [ 7 7 7 v w x y z A B C D E F G H 7 7 [ f I J       ",
"      4 c < 7 [ [ K L M N O P Q R S T U V W X Y [ 7 7 Z `  .    ",
"    ^ 5 d 7 7 [ ..+.@.#.$.%.&.&.&.&.&.*.=.-.;.>.,.[ 7 7 : '.).  ",
"    / 6 [ 7 7 K !.~.{.].&.^.&.&.&.&./.(.&._.:.<.[.}.7 7 [ |.1.  ",
"  & ( 7 7 7 v 2.3._.4.%.5.6.7.8.&.=.9.0.a.b.c.d.e.f.H 7 [ g.5 . ",
"  * $ [ [ f |.h.i.j.b.k.l.m.n.o.p.q.m.m.r.s.t.O u.v.w.[ 7 u 5 x.",
"  = _ [ f y.z.d.u.O A.r.m.0.q.n.l.0.q.m.m.9.B.C.D.E.F.G.7 f H.I.",
". - : [ J.K.L.&.M.N.O.r.m.r.P.r.m.Q.R.r.m.6.u.S.T.&.U.V.[ [ W.X.",
"+ ; < 7 Y.Z.`.&.d.u.O r.r. +&..+r.c.++@+#+$+%+&+*+&.=+-+[ 7 ;+>+",
"@ > : 7 ,+'+)+&.&.O.!+m.r.O.~+{+r.c.]+^+Q.P./+(+&.&._+:+[ 7 <+[+",
"# , : 7 e }+|+&.1+2+3+$+#+4+5+$+n.6+7+8+#+9+0+a+&.&.b+c+[ 7 <+d+",
"$ ' : 7 e+f+g+O h+i+j+0.m.0.0.0.m.0.0.0.0.m.k+l+m+n+o+i 7 7 <+p+",
". ) < 7 f p q+].r+r+9.#+n.0.m.0.0.0.0.0.n.n.s+t+u+v+w+x+7 [ Z y+",
"% ! [ [ [ q z+&.a+A+0.B+P.n.r.r.r.r.r.C+D+E+F+(+r+++G+H+7 [ I+J+",
"  ~ } [ [ r K+L+M+N+m.O+P+Q+R+O.O.R+R+S+T+U+V+W+X+Y+Z+f 7 f `+ @",
"  { | [ 7 e G .@+@@@#@#+n.#+q.#+#+q.#+#+n.8+A+$.$@%@&@[ [ : *@=@",
"  ] , [ 7 7 H -@;@>@0+a.$+r.q.#+n.#+Q.r.,@'@4.)@!@~@: 7 [ {@]@  ",
"    1 8 e 7 7 Y ^@/@(@O _@{.D+:@<@[@}@l+4.|@1@2@3@H 7 7 [ 4@^   ",
"    2 9 d 7 7 [ 5@6@7@0+8@$.@@9@++0@i+S+a@b@c@3@7 7 7 [ ,.d@    ",
"      0 ' : [ 7 [ }.e@f@g@h@i@j@k@l@m@n@o@p@~@H 7 7 [ e q@r@    ",
"        g s f 7 7 7 H s@t@u@v@w@x@y@z@A@Z+&@: 7 7 [ W.B@C@      ",
"          t I Z 7 7 7 [ f D@E@F@G@H@G H+f [ 7 7 [ e B@]         ",
"          u J ` : [ [ 7 7 7 7 7 7 7 7 7 7 [ [ [ ,.q@C@          ",
"               .'.|.g.u f [ 7 7 7 7 [ [ f : {@4@d@r@            ",
"                ).1.5 5 H.W.;+<+<+<+Z I+`+*@]@^                 ",
"                    . x.I.X.>+[+d+p+y+J+ @=@                    "};
